<svg width="126" height="23" viewBox="0 0 126 23" fill="none" xmlns="http://www.w3.org/2000/svg">
<g clip-path="url(#clip0_147_539)">
<path d="M48.5468 9.819H45.4872V17.439C45.4872 18.4247 45.8639 18.7442 47.1132 18.7442H47.9085C48.3186 18.7442 48.6514 19.0762 48.6514 19.4855V21.3336C48.6514 21.7429 48.3186 22.075 47.9085 22.075H46.7931C43.338 22.075 42.0008 20.8575 42.0008 17.6124V9.81691H40.2178C39.8076 9.81691 39.4749 9.48488 39.4749 9.07559V7.45928C39.4749 7.04998 39.8076 6.71795 40.2178 6.71795H42.0008V3.72131C42.0008 3.31201 42.3335 2.97998 42.7437 2.97998H44.7422C45.1524 2.97998 45.4851 3.31201 45.4851 3.72131V6.71795H48.5447C48.9548 6.71795 49.2876 7.04998 49.2876 7.45928V9.07559C49.2876 9.48488 48.9548 9.81691 48.5447 9.81691L48.5468 9.819Z" fill="black"/>
<path d="M53.8915 21.5006L50.6917 7.62629C50.585 7.16061 50.9387 6.7179 51.4158 6.7179H53.3348C53.6864 6.7179 53.9898 6.96431 54.0631 7.30678L56.1746 17.2657C57.3172 13.9182 58.462 10.5707 59.6046 7.22534C59.7071 6.92254 59.9896 6.71998 60.3098 6.71998H62.3188C62.639 6.71998 62.9215 6.92463 63.0241 7.22534L66.3975 17.2657H66.4561L68.5677 7.30678C68.6409 6.96431 68.9443 6.7179 69.2959 6.7179H71.2149C71.6921 6.7179 72.0457 7.16061 71.939 7.62629L68.7393 21.5006C68.6618 21.8368 68.3605 22.077 68.0152 22.077H65.7132C65.3951 22.077 65.1126 21.8744 65.01 21.5737L61.3478 10.8338C60.1089 14.4131 58.8679 17.9945 57.6291 21.5737C57.5265 21.8744 57.244 22.077 56.9259 22.077H54.6239C54.2765 22.077 53.9773 21.8389 53.8998 21.5006H53.8915Z" fill="black"/>
<path d="M72.2299 14.3985C72.2299 9.56002 75.2496 6.28564 79.6925 6.28564C84.1353 6.28564 87.1844 9.56002 87.1844 14.3985C87.1844 19.237 84.1646 22.5114 79.6925 22.5114C75.2203 22.5114 72.2299 19.237 72.2299 14.3985ZM83.7 14.3985C83.7 11.3267 82.1891 9.47232 79.6925 9.47232C77.1959 9.47232 75.7142 11.3267 75.7142 14.3985C75.7142 17.4703 77.1959 19.3247 79.6925 19.3247C82.1891 19.3247 83.7 17.4703 83.7 14.3985Z" fill="black"/>
<path d="M88.9256 21.3356V7.46128C88.9256 7.05199 89.2583 6.71995 89.6685 6.71995H91.4619C91.8721 6.71995 92.2048 7.05199 92.2048 7.46128V8.05226H92.2634C92.9017 7.0666 94.0339 6.42969 95.5155 6.42969C95.911 6.42969 96.2772 6.45683 96.6225 6.51322C97.039 6.58004 97.3236 6.96637 97.2483 7.37984L96.9009 9.31147C96.8276 9.71659 96.4363 9.98389 96.0324 9.90871C95.7101 9.84815 95.415 9.81892 95.1074 9.81892C93.337 9.81892 92.4057 11.0071 92.4057 13.4692V21.3335C92.4057 21.7428 92.073 22.0749 91.6628 22.0749H89.6664C89.2562 22.0749 88.9235 21.7428 88.9235 21.3335L88.9256 21.3356Z" fill="black"/>
<path d="M98.598 21.3356V1.6643C98.598 1.25501 98.9308 0.922974 99.3409 0.922974H101.337C101.748 0.922974 102.08 1.25501 102.08 1.6643V13.0056H102.139L107.58 6.96428C107.72 6.80767 107.921 6.71787 108.132 6.71787H110.464C111.11 6.71787 111.449 7.48635 111.012 7.96247L106.552 12.803L111.673 20.9389C111.985 21.4338 111.629 22.0749 111.043 22.0749H108.771C108.511 22.0749 108.271 21.9391 108.137 21.7199L104.144 15.1795H104.085L102.082 17.4118V21.3356C102.082 21.7449 101.75 22.077 101.339 22.077H99.343C98.9329 22.077 98.6001 21.7449 98.6001 21.3356H98.598Z" fill="black"/>
<path d="M112.515 20.9138L117.085 14.2816L112.661 7.88107C112.32 7.38824 112.674 6.71791 113.272 6.71791H115.545C115.798 6.71791 116.035 6.84738 116.171 7.05829L119.174 11.7297H119.232L122.208 7.06038C122.344 6.84529 122.581 6.71582 122.836 6.71582H125.132C125.732 6.71582 126.084 7.38824 125.743 7.88107L121.296 14.2795L125.866 20.9118C126.205 21.4046 125.851 22.0749 125.253 22.0749H122.98C122.727 22.0749 122.491 21.9454 122.355 21.7324L119.234 16.8585H119.176L116.055 21.7324C115.919 21.9454 115.683 22.0749 115.43 22.0749H113.128C112.529 22.0749 112.176 21.4046 112.515 20.9118V20.9138Z" fill="black"/>
<path d="M37.719 6.72011H35.7204C35.3103 6.72011 34.9775 7.05214 34.9775 7.46144V16.0504C34.9775 18.0196 33.7575 19.3248 31.8426 19.3248C29.7792 19.3248 28.7643 18.2514 28.7643 16.0504V7.45517C28.7643 7.35702 28.7433 7.26514 28.7078 7.17952C28.5968 6.91014 28.329 6.72011 28.0193 6.72011H26.0228C25.9558 6.72011 25.891 6.72846 25.8282 6.74726C25.8094 6.75143 25.7926 6.75561 25.7738 6.76396C25.485 6.8642 25.2778 7.13985 25.2778 7.46144C25.2778 7.91459 25.0978 8.34894 24.7714 8.66427C24.4031 9.01927 23.9699 9.38472 23.4718 9.72719C23.3065 9.83996 23.1349 9.95063 22.957 10.0571C22.2245 4.24135 17.1267 -0.235857 11.0495 0.0105563C5.12291 0.248617 0.292939 5.0328 0.0125162 10.9467C-0.299298 17.5393 4.9848 23.0001 11.5245 23.0001C16.7814 23.0001 21.2284 19.471 22.6075 14.6596C22.708 14.3088 22.7917 13.9496 22.8586 13.5863C23.0679 13.5027 23.273 13.415 23.4718 13.3211C23.9196 13.1122 24.3382 12.8804 24.7316 12.6361C24.9702 12.4879 25.2799 12.6549 25.2799 12.9347V16.775C25.2799 20.3961 27.314 22.5115 30.7984 22.5115C32.5123 22.5115 34.1383 21.8161 35.0382 20.7156H35.0968V21.3358C35.0968 21.7451 35.4295 22.0771 35.8397 22.0771H37.7211C38.1312 22.0771 38.464 21.7451 38.464 21.3358V7.46144C38.464 7.05214 38.1312 6.72011 37.7211 6.72011H37.719ZM19.2215 14.8204C17.8717 17.9278 14.6845 20.0619 11.0348 19.8531C6.82429 19.613 3.40271 16.2049 3.15367 12.0034C2.95277 8.60371 4.79854 5.60707 7.57348 4.12232C7.81414 3.99285 8.10084 4.18288 8.09038 4.45644C7.9983 6.6512 8.69517 8.9086 10.1412 10.692C12.303 13.3628 15.2286 14.1668 17.4155 14.3506C17.8152 14.3861 18.1919 14.3986 18.533 14.3986C18.6711 14.3986 18.8051 14.3965 18.9327 14.3923C19.1566 14.3861 19.3136 14.6116 19.2257 14.8163C19.2257 14.8163 19.2257 14.8183 19.2257 14.8204H19.2215ZM19.3931 11.2286C19.0666 11.2579 18.6209 11.2788 18.1019 11.2579C16.4926 11.1911 14.1864 10.7045 12.5834 8.72483C11.3717 7.22755 10.9553 5.17063 11.4031 3.3977C11.4429 3.24108 11.5894 3.13249 11.7505 3.13667C12.3051 3.15129 12.8471 3.2202 13.3703 3.33923C16.9132 4.13485 19.6128 7.17535 19.887 10.8799C19.8995 11.0449 19.774 11.189 19.6087 11.2078C19.5375 11.2161 19.4664 11.2245 19.3931 11.2307V11.2286Z" fill="black"/>
</g>
<defs>
<clipPath id="clip0_147_539">
<rect width="126" height="23" fill="white"/>
</clipPath>
</defs>
</svg>
