<svg width="18" height="18" viewBox="0 0 18 18" fill="none" xmlns="http://www.w3.org/2000/svg">
<path d="M8.56598 0.000304744C3.76961 0.0410136 -0.0289119 3.94906 0.00016583 8.70279C0.0297282 13.5215 3.99981 17.4411 8.91443 17.3001C13.53 17.1673 17.2796 13.4236 17.3111 8.65481C17.2869 3.8124 13.4147 -0.0394348 8.56598 0.000304744ZM8.65952 10.2454C6.24509 10.2454 4.18445 11.1477 2.46596 12.8376C0.746494 10.4857 0.473164 6.42891 3.20502 3.49836C5.87532 0.634684 10.4396 0.356507 13.4554 2.88385C16.5658 5.49115 16.9273 9.84893 14.8628 12.8483C13.1355 11.1473 11.0744 10.2454 8.65952 10.2458V10.2454Z" fill="black"/>
<path d="M12.1217 5.77523C12.1227 7.66964 10.5636 9.22724 8.66778 9.22579C6.76076 9.22385 5.1988 7.67837 5.19735 5.79074C5.1959 3.84495 6.73896 2.30383 8.68765 2.30383C10.6363 2.30383 12.1208 3.86725 12.1217 5.77523Z" fill="black"/>
</svg>
